<?xml version="1.0" encoding="UTF-8" standalone="no"?>
<!-- Creator: CorelDRAW 2017 -->

<svg
   xml:space="preserve"
   width="142.66811"
   height="25.439461"
   version="1.1"
   style="clip-rule:evenodd;fill-rule:evenodd;image-rendering:optimizeQuality;shape-rendering:geometricPrecision;text-rendering:geometricPrecision"
   viewBox="0 0 149.61337 26.677999"
   id="svg23"
   sodipodi:docname="open_odoo_logo_white.svg"
   inkscape:version="1.2.1 (9c6d41e, 2022-07-14)"
   xmlns:inkscape="http://www.inkscape.org/namespaces/inkscape"
   xmlns:sodipodi="http://sodipodi.sourceforge.net/DTD/sodipodi-0.dtd"
   xmlns="http://www.w3.org/2000/svg"
   xmlns:svg="http://www.w3.org/2000/svg"
   xmlns:rdf="http://www.w3.org/1999/02/22-rdf-syntax-ns#"
   xmlns:cc="http://creativecommons.org/ns#"
   xmlns:dc="http://purl.org/dc/elements/1.1/"><metadata
   id="metadata27"><rdf:RDF><cc:Work
       rdf:about=""><dc:format>image/svg+xml</dc:format><dc:type
         rdf:resource="http://purl.org/dc/dcmitype/StillImage" /><dc:title /></cc:Work></rdf:RDF></metadata><sodipodi:namedview
   pagecolor="#ffffff"
   bordercolor="#666666"
   borderopacity="1"
   objecttolerance="10"
   gridtolerance="10"
   guidetolerance="10"
   inkscape:pageopacity="0"
   inkscape:pageshadow="2"
   inkscape:window-width="1910"
   inkscape:window-height="876"
   id="namedview25"
   showgrid="false"
   fit-margin-top="0"
   fit-margin-left="0"
   fit-margin-right="0"
   fit-margin-bottom="0"
   inkscape:zoom="2.8284271"
   inkscape:cx="207.18229"
   inkscape:cy="103.9447"
   inkscape:window-x="0"
   inkscape:window-y="25"
   inkscape:window-maximized="0"
   inkscape:current-layer="svg23"
   inkscape:showpageshadow="2"
   inkscape:pagecheckerboard="0"
   inkscape:deskcolor="#d1d1d1" />
 <defs
   id="defs4">
  <style
   type="text/css"
   id="style2">
   <![CDATA[
    .fil3 {fill:none}
    .fil2 {fill:#888888}
    .fil0 {fill:#9C5789}
    .fil1 {fill:#888888;fill-rule:nonzero}
   ]]>
  </style>
 
  
  
  
  
  
  
  
  
  
 </defs>
<g
   id="g85"
   style="fill:#ffffff"
   transform="translate(-176.87769,-5.013)"><path
     inkscape:connector-curvature="0"
     class="fil1"
     d="m 183.041,26.712 c -1.686,0 -3.135,-0.628 -4.347,-1.883 -1.212,-1.256 -1.817,-2.718 -1.817,-4.386 0,-1.669 0.614,-3.113 1.843,-4.334 1.23,-1.22 2.709,-1.83 4.439,-1.83 1.73,0 3.205,0.61 4.425,1.83 1.221,1.221 1.831,2.67 1.831,4.347 0,1.677 -0.597,3.139 -1.791,4.386 -1.194,1.247 -2.643,1.87 -4.346,1.87 z m 5.531,-6.204 c 0,-1.483 -0.531,-2.77 -1.593,-3.858 -1.063,-1.089 -2.332,-1.634 -3.807,-1.634 -1.475,0 -2.752,0.549 -3.832,1.647 -1.081,1.097 -1.621,2.384 -1.621,3.859 0,1.475 0.54,2.752 1.621,3.832 1.08,1.08 2.361,1.62 3.845,1.62 1.484,0 2.753,-0.54 3.807,-1.62 1.053,-1.08 1.58,-2.362 1.58,-3.846 z m 3.346,11.183 V 14.569 h 0.842 v 2.897 c 0.475,-0.966 1.217,-1.738 2.226,-2.318 1.01,-0.579 2.059,-0.869 3.148,-0.869 1.739,0 3.218,0.61 4.439,1.83 1.22,1.221 1.83,2.683 1.83,4.386 0,1.704 -0.61,3.166 -1.83,4.386 -1.221,1.221 -2.7,1.831 -4.439,1.831 -1.053,0 -2.081,-0.285 -3.082,-0.856 -1.001,-0.571 -1.765,-1.339 -2.292,-2.305 v 8.14 z m 0.79,-11.169 c 0,1.475 0.54,2.752 1.62,3.832 1.08,1.08 2.362,1.62 3.846,1.62 1.484,0 2.752,-0.54 3.806,-1.62 1.054,-1.08 1.581,-2.362 1.581,-3.846 0,-1.483 -0.532,-2.77 -1.594,-3.858 -1.063,-1.089 -2.331,-1.634 -3.806,-1.634 -1.476,0 -2.753,0.549 -3.833,1.647 -1.08,1.097 -1.62,2.384 -1.62,3.859 z m 20.125,6.216 h -0.237 c -1.668,0 -3.122,-0.627 -4.36,-1.883 -1.238,-1.256 -1.857,-2.718 -1.857,-4.386 0,-1.668 0.615,-3.113 1.844,-4.333 1.229,-1.221 2.748,-1.831 4.557,-1.831 1.809,0 3.363,0.72 4.663,2.16 l -8.272,8.166 c 1.142,0.913 2.239,1.37 3.293,1.37 1.054,0 1.998,-0.242 2.832,-0.725 0.834,-0.482 1.523,-1.128 2.068,-1.936 v 1.344 c -1.247,1.37 -2.757,2.054 -4.531,2.054 z m -0.277,-11.695 c -1.396,0 -2.634,0.54 -3.714,1.62 -1.08,1.08 -1.62,2.322 -1.62,3.727 0,1.405 0.465,2.634 1.396,3.688 l 7.666,-7.613 c -1.089,-0.948 -2.332,-1.422 -3.728,-1.422 z m 8.232,11.379 h -0.843 V 14.569 h 0.843 v 2.397 c 0.896,-1.792 2.423,-2.687 4.583,-2.687 1.476,0 2.714,0.509 3.715,1.527 1.001,1.019 1.501,2.257 1.501,3.715 v 6.901 h -0.843 v -6.901 c 0,-1.212 -0.426,-2.266 -1.277,-3.161 -0.852,-0.896 -1.884,-1.344 -3.096,-1.344 -1.211,0 -2.278,0.448 -3.2,1.344 -0.922,0.895 -1.383,1.949 -1.383,3.161 z"
     id="path8-1"
     style="clip-rule:evenodd;fill:#ffffff;fill-rule:nonzero;image-rendering:optimizeQuality;shape-rendering:geometricPrecision;text-rendering:geometricPrecision" /><path
     inkscape:connector-curvature="0"
     class="fil0"
     d="m 247.603,26.706 c -4.552,0 -8.243,-3.69 -8.243,-8.243 0,-4.552 3.691,-8.242 8.243,-8.242 4.552,0 8.243,3.69 8.243,8.242 0,4.553 -3.691,8.243 -8.243,8.243 z m 0,-13.133 c 2.701,0 4.891,2.189 4.891,4.89 0,2.702 -2.19,4.891 -4.891,4.891 -2.701,0 -4.891,-2.189 -4.891,-4.891 0,-2.701 2.19,-4.89 4.891,-4.89 z"
     id="path10-7"
     style="clip-rule:evenodd;fill:#ffffff;fill-rule:evenodd;image-rendering:optimizeQuality;shape-rendering:geometricPrecision;text-rendering:geometricPrecision" /><path
     inkscape:connector-curvature="0"
     class="fil0"
     d="m 264.682,26.706 c -4.552,0 -8.242,-3.69 -8.242,-8.243 0,-4.552 3.69,-8.242 8.242,-8.242 1.88,0 3.612,0.629 4.999,1.689 V 6.636 c 0,-0.896 0.727,-1.623 1.623,-1.623 0.896,0 1.623,0.727 1.623,1.623 0,0.986 -0.002,10.643 -0.002,11.846 -0.01,4.544 -3.696,8.224 -8.243,8.224 z m 0,-13.133 c 2.701,0 4.891,2.189 4.891,4.89 0,2.702 -2.19,4.891 -4.891,4.891 -2.701,0 -4.89,-2.189 -4.89,-4.891 0,-2.701 2.189,-4.89 4.89,-4.89 z"
     id="path12-7"
     style="clip-rule:evenodd;fill:#ffffff;fill-rule:evenodd;image-rendering:optimizeQuality;shape-rendering:geometricPrecision;text-rendering:geometricPrecision" /><path
     inkscape:connector-curvature="0"
     class="fil0"
     d="m 281.918,26.706 c -4.553,0 -8.243,-3.69 -8.243,-8.243 0,-4.552 3.69,-8.242 8.243,-8.242 4.552,0 8.242,3.69 8.242,8.242 0,4.553 -3.69,8.243 -8.242,8.243 z m 0,-13.133 c 2.701,0 4.891,2.189 4.891,4.89 0,2.702 -2.19,4.891 -4.891,4.891 -2.701,0 -4.891,-2.189 -4.891,-4.891 0,-2.701 2.19,-4.89 4.891,-4.89 z"
     id="path14-9"
     style="clip-rule:evenodd;fill:#ffffff;fill-rule:evenodd;image-rendering:optimizeQuality;shape-rendering:geometricPrecision;text-rendering:geometricPrecision" /><path
     inkscape:connector-curvature="0"
     class="fil0"
     d="m 299.386,26.706 c -4.553,0 -8.243,-3.69 -8.243,-8.243 0,-4.552 3.69,-8.242 8.243,-8.242 4.552,0 8.242,3.69 8.242,8.242 0,4.553 -3.69,8.243 -8.242,8.243 z m 0,-13.133 c 2.701,0 4.89,2.189 4.89,4.89 0,2.702 -2.189,4.891 -4.89,4.891 -2.701,0 -4.891,-2.189 -4.891,-4.891 0,-2.701 2.19,-4.89 4.891,-4.89 z"
     id="path16-5"
     style="clip-rule:evenodd;fill:#ffffff;fill-rule:evenodd;image-rendering:optimizeQuality;shape-rendering:geometricPrecision;text-rendering:geometricPrecision" /><path
     inkscape:connector-curvature="0"
     class="fil1"
     d="m 309.292,26.627 c -0.454,0 -0.681,-0.204 -0.681,-0.612 0,-0.408 0.227,-0.611 0.681,-0.611 0.454,0 0.681,0.203 0.681,0.611 0,0.408 -0.227,0.612 -0.681,0.612 z m 7.746,-7.815 c -0.579,-0.579 -1.217,-0.868 -1.915,-0.868 -0.697,0 -1.312,0.263 -1.845,0.789 -0.533,0.526 -0.799,1.138 -0.799,1.835 v 5.921 h -0.632 v -8.881 h 0.632 v 1.323 c 0.237,-0.448 0.605,-0.816 1.105,-1.106 0.5,-0.289 1.059,-0.434 1.678,-0.434 0.618,0 1.21,0.211 1.776,0.632 z m 8.821,-1.204 h 0.632 v 8.881 h -0.632 v -1.796 c -0.671,1.342 -1.815,2.013 -3.434,2.013 -1.105,0 -2.032,-0.381 -2.782,-1.145 -0.75,-0.763 -1.125,-1.69 -1.125,-2.782 v -5.171 h 0.631 v 5.171 c 0,0.908 0.319,1.697 0.958,2.368 0.638,0.671 1.411,1.007 2.318,1.007 0.908,0 1.707,-0.336 2.398,-1.007 0.691,-0.671 1.036,-1.46 1.036,-2.368 z"
     id="path18-7"
     style="clip-rule:evenodd;fill:#ffffff;fill-rule:nonzero;image-rendering:optimizeQuality;shape-rendering:geometricPrecision;text-rendering:geometricPrecision" /></g></svg>
